<svg xmlns="http://www.w3.org/2000/svg" width="944" height="769.03357" data-name="Layer 1">
  <path fill="#ECF0F1" d="M931.95258 417.73156L416 564.03356l470.74036-265.24408A472.65252 472.65252 0 0 0 806.724 191.67107L350 443.03356l382.35809-312.21637a468.24667 468.24667 0 0 0-181.56927-71.37884L339 413.03356 479.2713 53.09203c-2.08856-.02728-4.17621-.05847-6.2713-.05847-260.1261 0-471 210.87378-471 471a468.80165 468.80165 0 0 0 68.05005 244H875.95a472.49095 472.49095 0 0 0 56.00263-350.302z"/>
  <path fill="#313235" d="M132 396.03357h682v372H132z"/>
  <path fill="#2a2b2e" d="M252 439.03357h427v2H252z"/>
  <path fill="#264fc1" d="M211 538.66194h155.78378v17.7027H211z"/>
  <path fill="#ECF0F1" d="M211 568.75654h262v10.62162H211zM211 591.77005h247.83784v10.62162H211zM211 614.78357h180.56757v10.62162H211z"/>
  <path fill="#264fc1" d="M846 733.96266c0-32.1668-16.3221-58.24316-36.45652-58.24316-12.655 0-23.8005 10.30531-30.33731 25.94558a18.28713 18.28713 0 0 0-6.967-1.398c-6.09437 0-11.72912 3.12278-16.32427 8.40786-5.89246-19.501-18.38734-32.95544-32.84964-32.95544-13.52217 0-25.316 11.77072-31.60967 29.23968a19.91524 19.91524 0 0 0-12.47729-4.6921c-15.45192 0-27.97826 20.012-27.97826 44.69821a65.14465 65.14465 0 0 0 4.40793 24.06827h183.23968C843.261 759.27732 846 747.13238 846 733.96266z"/>
  <circle cx="200.80444" cy="83.6779" r="47.00964" fill="#ff6584"/>
  <path fill="#ffb8b8" d="M171.06288 172.79605a8.86755 8.86755 0 0 1 10.46992 2.67067c4.17536 5.21216 9.8727 16.6496 7.68556 39.08516l-8.47085 86.89331-1.34845 87.58759S166.65711 429.41435 148 429.03356s15.452-38.67931 15.452-38.67931-4.73025-69.486-2.78612-89.42871c1.81243-18.59142-16.12818-116.59244 10.397-128.12949z"/>
  <path fill="#ffb8b8" d="M194.066 133.04045l10.69526 28.98584-15.28889 4.72262-2.14684 42.06341 37.90692-20.418 19.09218-21.03733 2.3823-16.14374s-14.72275-2.55326-20.076-35.06495zM122.29393 375.20778s-66.88151 67.15074-49.64746 102.55763 101.34139 159.352 101.34139 159.352l22.50029-28.65516s-22.11638-16.07925-32.41647-53.762-33.61324-63.70886-40.494-72.97188 64.60567-74.08469 58.29109-90.6236-59.57484-15.89699-59.57484-15.89699z"/>
  <path d="M122.29393 375.20778s-66.88151 67.15074-49.64746 102.55763 101.34139 159.352 101.34139 159.352l22.50029-28.65516s-22.11638-16.07925-32.41647-53.762-33.61324-63.70886-40.494-72.97188 64.60567-74.08469 58.29109-90.6236-59.57484-15.89699-59.57484-15.89699z" opacity=".1"/>
  <path fill="#2a2b2e" d="M164.31841 616.65748s-6.9872 13.81467-4.88234 19.32764 13.14206 37.34078 13.14206 37.34078-11.75179 46.10215-3.22588 45.07634 39.38114-32.12777 38.01339-43.49564l-3.93227-32.68265 9.55172 7.50009 12.15822-18.7615-16.94531-21.02607s-18.19536-19.43412-23.8793-18.75025-20.00029 25.47126-20.00029 25.47126z"/>
  <path fill="#ffb8b8" d="M177.60586 391.61771l-4.48716 10.63077-18.84546 82.99452s-7.5001 9.55172-5.15977 40.98435-37.80865 153.02921-37.80865 153.02921l-1.35649 24.66965 24.15674-2.90646 16.47442-30.81326s6.18558-32.45845 24.25195-62.02169 18.04386-101.63829 18.04386-101.63829l48.62164-111.08354-38.26012-18.46154z"/>
  <path fill="#2a2b2e" d="M119.542 663.84994s-7.2759-.56615-8.355 2.44679-22.831 61.85072-22.831 61.85072-41.36827 39.57463-21.13254 40.023 54.16839-5.07582 59.90557-17.29854 12.38243-28.87937 12.38243-28.87937l2.05162 17.05182 16.026-10.57753s8.96306-57.29906-1.49674-60.36524-36.55034-4.25165-36.55034-4.25165zM143.93938 339.44771s-16.93409 15.01145-15.34214 16.26147-9.605 4.03874-7.50009 9.55172-9.48723 16.99858-3.80329 16.3147 27.73582-9.10331 52.128 13.90989l4.26295-.5129-.56614 7.27589s17.6712-20.86636 63.32494 11.12115c0 0 15.11793-6.1436 13.01307-11.65657s24.55191-11.60335 10.15984-47.35217-58.95552-34.71176-58.95552-34.71176z"/>
  <path fill="#313235" d="M235.681 155.42301s7.32913-10.9727 11.76306-10.06462 28.67663.36023 32.54441 8.5442-14.55074 93.08283-11.591 105.70073 18.67755 107.311 5.15157 114.70459-29.339-28.18423-29.339-28.18423-42.52307-17.94864-78.61383-6.39853-25.01159-4.19846-25.01159-4.19846 25.85517-24.73415 21.92289-57.4168-5.6952-35.35365.95006-52.01029c0 0 1.18552-26.09063.33068-33.19556s-6.14361-15.11793-2.22259-18.4728 44.61667-12.57592 44.61667-12.57592-20.6309 8.24847-11.25015 14.32758 40.74882-20.75989 40.74882-20.75989z"/>
  <circle cx="199.51444" cy="106.43692" r="34.34959" fill="#ffb8b8"/>
  <path fill="#ffb8b8" d="M271.71576 149.9251a8.86756 8.86756 0 0 0-10.407 2.9062c-4.05671 5.305-9.49456 16.86811-6.80181 39.24862l10.42905 86.68007 3.32416 87.53492s-2.14684 42.0634 16.49693 41.2618-.52416-40.30049-.52416-40.30049 3.16139-69.575.76783-89.4688c-2.23134-18.5458 13.49372-116.92664-13.285-127.86232z"/>
  <path fill="#ff6584" d="M225.34207 0a25.69668 25.69668 0 0 1-14.827 10.19284c-10.3682 2.77637-.08469 18.3569-.08469 18.3569s-3.73946-5.66565 1.6542-11.66572S226.158 6.78184 225.34207 0z"/>
  <circle cx="208.59302" cy="32.2873" r="13.10105" fill="#ff6584"/>
  <path fill="#313235" d="M225.31954 43.26812c-10.68021-4.03964-28.46372-6.08793-37.61288-4.68777l1.25477-9.16227c8.79577 4.54593 26.49768 6.68223 37.61288 4.68777z"/>
  <path fill="#ff6584" d="M204.65333 46.54778s-13.38521 22.2641-44.51033 30.59869-.25425 55.107-.25425 55.107-11.22577-17.00817 4.96588-35.02026 42.24822-30.32651 39.7987-50.68543z"/>
  <path fill="#ff6584" d="M205.71565 45.19483s12.8588 30.5808 26.97577 33.472 13.04621 51.21192-9.0305 58.45783c0 0 16.09794-28.32766 2.33789-47.32576s-22.45155-34.01634-20.28316-44.60407z"/>
  <path fill="#2a2b2e" d="M0 767.03357h931v2H0z"/>
  <path fill="#264fc1" d="M748 408.03357h45v17h-45z"/>
  <circle cx="700.99488" cy="572.39925" r="57.00512" fill="#264fc1" opacity=".4"/>
  <circle cx="595.49287" cy="599.62558" r="39.98867" fill="#264fc1" opacity=".4"/>
</svg>
